<svg width="14" height="14" viewBox="0 0 14 14" fill="none" xmlns="http://www.w3.org/2000/svg">
<path fill-rule="evenodd" clip-rule="evenodd" d="M3.5 3.05176e-05C3.26794 3.05176e-05 3.04538 0.0922177 2.88128 0.256312C2.71719 0.420406 2.625 0.642966 2.625 0.875031V1.75003H1.75C1.28587 1.75003 0.840752 1.9344 0.512563 2.26259C0.184374 2.59078 0 3.0359 0 3.50003V12.25C0 12.7142 0.184374 13.1593 0.512563 13.4875C0.840752 13.8157 1.28587 14 1.75 14H12.25C12.7141 14 13.1592 13.8157 13.4874 13.4875C13.8156 13.1593 14 12.7142 14 12.25V3.50003C14 3.0359 13.8156 2.59078 13.4874 2.26259C13.1592 1.9344 12.7141 1.75003 12.25 1.75003H11.375V0.875031C11.375 0.642966 11.2828 0.420406 11.1187 0.256312C10.9546 0.0922177 10.7321 3.05176e-05 10.5 3.05176e-05C10.2679 3.05176e-05 10.0454 0.0922177 9.88128 0.256312C9.71719 0.420406 9.625 0.642966 9.625 0.875031V1.75003H4.375V0.875031C4.375 0.642966 4.28281 0.420406 4.11872 0.256312C3.95462 0.0922177 3.73206 3.05176e-05 3.5 3.05176e-05ZM3.5 4.37503C3.26794 4.37503 3.04538 4.46722 2.88128 4.63131C2.71719 4.79541 2.625 5.01797 2.625 5.25003C2.625 5.48209 2.71719 5.70465 2.88128 5.86875C3.04538 6.03284 3.26794 6.12503 3.5 6.12503H10.5C10.7321 6.12503 10.9546 6.03284 11.1187 5.86875C11.2828 5.70465 11.375 5.48209 11.375 5.25003C11.375 5.01797 11.2828 4.79541 11.1187 4.63131C10.9546 4.46722 10.7321 4.37503 10.5 4.37503H3.5Z" fill="white"/>
</svg>
