<svg width="19" height="14" viewBox="0 0 19 14" fill="none" xmlns="http://www.w3.org/2000/svg">
<g clip-path="url(#clip0_5_34)">
<path d="M1.29549 13.9999H4.3182V7.06625L0 4.00726V12.7764C0 13.4524 0.579723 14 1.29549 14V13.9999Z" fill="#4285F4"/>
<path d="M14.6818 13.9999H17.7045C18.4203 13.9999 19 13.4524 19 12.7763V4.00726L14.6818 7.06625V13.9999Z" fill="#34A853"/>
<path d="M14.6818 1.764V7.06625L19 4.00726V2.37582C19 0.863653 17.1724 4.17233e-07 15.8909 0.907501L14.6818 1.764Z" fill="#FBBC04"/>
<path fill-rule="evenodd" clip-rule="evenodd" d="M4.31819 7.06625V1.76401L9.5 5.43481L14.6818 1.76401V7.06625L9.5 10.737L4.31819 7.06625Z" fill="#EA4335"/>
<path d="M0 2.37582V4.00726L4.3182 7.06625V1.764L3.1091 0.907503C1.82764 1.96695e-06 0 0.863654 0 2.37575V2.37582Z" fill="#C5221F"/>
</g>
<defs>
<clipPath id="clip0_5_34">
<rect width="19" height="14" fill="white"/>
</clipPath>
</defs>
</svg>
