<svg width="18" height="17" viewBox="0 0 18 17" fill="none" xmlns="http://www.w3.org/2000/svg">
<g clip-path="url(#clip0_3_13)">
<path d="M9.00007 0C4.0301 0 0 3.89688 0 8.70407C0 12.5497 2.57878 15.8124 6.15481 16.9633C6.60459 17.0439 6.76976 16.7745 6.76976 16.5446C6.76976 16.3371 6.76132 15.6514 6.75752 14.9242C4.2537 15.4506 3.72537 13.8972 3.72537 13.8972C3.31594 12.8911 2.72602 12.6235 2.72602 12.6235C1.90948 12.0833 2.78761 12.0945 2.78761 12.0945C3.69134 12.1558 4.16721 12.9914 4.16721 12.9914C4.96997 14.322 6.27272 13.9373 6.78628 13.7149C6.86707 13.1524 7.1003 12.7684 7.35771 12.551C5.35866 12.331 3.25723 11.5846 3.25723 8.24949C3.25723 7.29919 3.60879 6.5227 4.18451 5.91314C4.09106 5.69391 3.78302 4.80869 4.2717 3.60971C4.2717 3.60971 5.02748 3.37579 6.7474 4.50194C7.46529 4.30909 8.23521 4.2124 9.00007 4.20906C9.76493 4.2124 10.5355 4.30902 11.2547 4.50194C12.9725 3.37586 13.7272 3.60978 13.7272 3.60978C14.2171 4.80862 13.9089 5.69398 13.8155 5.91314C14.3925 6.5227 14.7417 7.29919 14.7417 8.24949C14.7417 11.5926 12.6363 12.3287 10.6322 12.5442C10.955 12.8143 11.2426 13.344 11.2426 14.156C11.2426 15.3206 11.2322 16.2579 11.2322 16.5446C11.2322 16.7763 11.3942 17.0477 11.8504 16.9621C15.4245 15.81 18 12.5485 18 8.70414C18 3.89688 13.9705 0 9.00007 0ZM3.37085 12.3991C3.35102 12.4424 3.28064 12.4554 3.21659 12.4256C3.15127 12.3973 3.11463 12.3383 3.13573 12.2949C3.15513 12.2504 3.22566 12.238 3.29077 12.2678C3.35616 12.2962 3.39342 12.3557 3.37085 12.3991ZM3.81354 12.7811C3.77065 12.8196 3.6867 12.8017 3.62974 12.741C3.57089 12.6803 3.55985 12.5991 3.60337 12.5601C3.64767 12.5216 3.72902 12.5396 3.78802 12.6003C3.84694 12.6617 3.85833 12.7422 3.81354 12.7811ZM4.11729 13.2699C4.06209 13.307 3.97195 13.2722 3.9162 13.1949C3.86107 13.1175 3.86107 13.0247 3.91739 12.9875C3.97329 12.9503 4.06209 12.9837 4.11855 13.0606C4.17354 13.1392 4.17354 13.2321 4.11722 13.27L4.11729 13.2699ZM4.63085 13.836C4.58156 13.8887 4.47645 13.8745 4.39952 13.8027C4.32084 13.7325 4.29898 13.633 4.34848 13.5803C4.3984 13.5276 4.50408 13.5424 4.58156 13.6137C4.65961 13.6837 4.68352 13.784 4.63085 13.836ZM5.29474 14.0271C5.27295 14.0953 5.1717 14.1263 5.06981 14.0974C4.968 14.0675 4.90141 13.9877 4.92195 13.9188C4.94311 13.8501 5.04478 13.8179 5.14744 13.8489C5.24911 13.8785 5.31591 13.9577 5.29474 14.0271ZM6.05018 14.1082C6.05271 14.18 5.9663 14.2395 5.85928 14.2408C5.7517 14.2431 5.66459 14.1851 5.66339 14.1144C5.66339 14.0419 5.74791 13.983 5.85555 13.9812C5.96257 13.9792 6.05018 14.0368 6.05018 14.1082ZM6.79233 14.0807C6.80512 14.1507 6.7308 14.2227 6.62449 14.2419C6.52008 14.2603 6.42333 14.217 6.41004 14.1476C6.3971 14.0758 6.47283 14.0039 6.5771 13.9853C6.68355 13.9674 6.77876 14.0095 6.79233 14.0807Z" fill="white"/>
</g>
<defs>
<clipPath id="clip0_3_13">
<rect width="18" height="17" rx="8.5" fill="white"/>
</clipPath>
</defs>
</svg>
