<svg width="16" height="16" viewBox="0 0 16 16" fill="none" xmlns="http://www.w3.org/2000/svg">
<path d="M13.6325 13.6328H11.2618V9.92014C11.2618 9.03482 11.246 7.89514 10.0288 7.89514C8.79408 7.89514 8.60514 8.85976 8.60514 9.8557V13.6326H6.23451V5.99782H8.51032V7.0412H8.5422C8.76995 6.65176 9.09907 6.33139 9.4945 6.11421C9.88993 5.89702 10.3369 5.79116 10.7877 5.80789C13.1905 5.80789 13.6335 7.38839 13.6335 9.44451L13.6325 13.6328ZM3.55951 4.95426C2.7997 4.95439 2.18364 4.33851 2.18351 3.5787C2.18339 2.81889 2.7992 2.20282 3.55901 2.2027C4.31882 2.20251 4.93489 2.81839 4.93501 3.5782C4.93508 3.94308 4.7902 4.29304 4.53224 4.5511C4.27429 4.80916 3.92439 4.95418 3.55951 4.95426ZM4.74489 13.6329H2.3717V5.99782H4.74482V13.6328L4.74489 13.6329ZM14.8144 0.00101191H1.18045C0.536074 -0.00623809 0.00763658 0.509949 -0.000238419 1.15432V14.8451C0.00738658 15.4898 0.535762 16.0065 1.18039 15.9998H14.8144C15.4604 16.0078 15.9908 15.4911 15.9998 14.8451V1.15326C15.9906 0.507637 15.4601 -0.0084881 14.8144 -5.05946e-05" fill="white"/>
</svg>
